<svg width="20" height="20" viewBox="0 0 20 20" fill="none" xmlns="http://www.w3.org/2000/svg">
<g id="vuesax/outline/arrow-circle-right">
<g id="arrow-circle-right">
<path id="Vector" d="M9.99999 18.9583C5.05832 18.9583 1.04166 14.9416 1.04166 9.99996C1.04166 5.05829 5.05832 1.04163 9.99999 1.04163C14.9417 1.04163 18.9583 5.05829 18.9583 9.99996C18.9583 14.9416 14.9417 18.9583 9.99999 18.9583ZM9.99999 2.29163C5.74999 2.29163 2.29166 5.74996 2.29166 9.99996C2.29166 14.25 5.74999 17.7083 9.99999 17.7083C14.25 17.7083 17.7083 14.25 17.7083 9.99996C17.7083 5.74996 14.25 2.29163 9.99999 2.29163Z" fill="#B0B0B0"/>
<path id="Vector_2" d="M8.95 13.5667C8.79167 13.5667 8.63334 13.5083 8.50834 13.3833C8.26667 13.1417 8.26667 12.7417 8.50834 12.5L11.0083 10L8.50834 7.50001C8.26667 7.25834 8.26667 6.85834 8.50834 6.61667C8.75 6.37501 9.15 6.37501 9.39167 6.61667L12.3333 9.55834C12.575 9.80001 12.575 10.2 12.3333 10.4417L9.39167 13.3833C9.26667 13.5083 9.10834 13.5667 8.95 13.5667Z" fill="#B0B0B0"/>
</g>
</g>
</svg>
