<svg width="40" height="40" viewBox="0 0 40 40" fill="none" xmlns="http://www.w3.org/2000/svg">
<g id="Outline / Shopping, Ecommerce / Bag 3">
<path id="Vector" fill-rule="evenodd" clip-rule="evenodd" d="M15.8942 13.724C16.4149 13.5399 16.9862 13.8129 17.1702 14.3336C17.5826 15.5001 18.6951 16.3335 19.9998 16.3335C21.3045 16.3335 22.417 15.5001 22.8293 14.3336C23.0134 13.8129 23.5847 13.5399 24.1054 13.724C24.6261 13.908 24.8991 14.4794 24.715 15.0001C24.0291 16.9407 22.1784 18.3335 19.9998 18.3335C17.8212 18.3335 15.9705 16.9407 15.2846 15.0001C15.1005 14.4794 15.3734 13.908 15.8942 13.724ZM20.4803 11.3335H19.5187C17.351 11.3335 15.9082 11.3371 14.8155 11.4721C13.7777 11.6003 13.2994 11.8232 12.9637 12.1018C12.628 12.3804 12.3207 12.8095 12.0035 13.8058C11.6694 14.855 11.4 16.2724 11.0005 18.403C10.4406 21.3895 10.0651 23.418 9.99843 24.9459C9.93415 26.4187 10.1809 27.0448 10.5274 27.4623C10.874 27.8798 11.4438 28.2377 12.9032 28.446C14.4172 28.662 16.4802 28.6668 19.5187 28.6668H20.4803C23.5189 28.6668 25.5819 28.662 27.0959 28.446C28.5552 28.2377 29.1251 27.8798 29.4716 27.4623C29.8181 27.0448 30.0649 26.4187 30.0006 24.9459C29.934 23.418 29.5585 21.3895 28.9985 18.403C28.5991 16.2724 28.3297 14.855 27.9956 13.8058C27.6783 12.8095 27.3711 12.3804 27.0354 12.1018C26.6997 11.8232 26.2213 11.6003 25.1836 11.4721C24.0909 11.3371 22.6481 11.3335 20.4803 11.3335ZM11.6864 10.5628C10.2052 11.7921 9.81507 13.8729 9.03478 18.0344C7.93755 23.8863 7.38893 26.8123 8.98843 28.7396C10.5879 30.6668 13.5649 30.6668 19.5187 30.6668H20.4803C26.4342 30.6668 29.4111 30.6668 31.0106 28.7396C32.6101 26.8123 32.0615 23.8863 30.9643 18.0344C30.184 13.8729 29.7938 11.7921 28.3127 10.5628C26.8315 9.3335 24.7144 9.3335 20.4803 9.3335H19.5187C15.2847 9.3335 13.1676 9.3335 11.6864 10.5628Z" fill="white"/>
</g>
</svg>
