<svg width="16" height="17" viewBox="0 0 16 17" fill="none" xmlns="http://www.w3.org/2000/svg">
<g id="Outline / Shopping, Ecommerce / Bag 4">
<path id="Vector" fill-rule="evenodd" clip-rule="evenodd" d="M6.36732 5.86219C6.57202 5.78984 6.79662 5.89713 6.86897 6.10183C7.03105 6.56042 7.46843 6.88803 7.98131 6.88803C8.49418 6.88803 8.93155 6.56042 9.09364 6.10183C9.16599 5.89713 9.39059 5.78984 9.59529 5.86219C9.79999 5.93455 9.90728 6.15914 9.83493 6.36384C9.56528 7.12673 8.83774 7.67425 7.98131 7.67425C7.12487 7.67425 6.39733 7.12673 6.12768 6.36384C6.05533 6.15914 6.16262 5.93455 6.36732 5.86219ZM8.17021 4.92246H7.7922C6.94003 4.92246 6.37285 4.92386 5.94329 4.97693C5.53532 5.02734 5.34728 5.11497 5.21532 5.22449C5.08336 5.33401 4.96257 5.50268 4.83784 5.89437C4.70651 6.30679 4.60061 6.864 4.44357 7.70158C4.22344 8.87562 4.07585 9.67306 4.04963 10.2737C4.02436 10.8527 4.12138 11.0988 4.2576 11.2629C4.39381 11.427 4.61784 11.5678 5.19154 11.6496C5.78672 11.7345 6.5977 11.7364 7.7922 11.7364H8.17021C9.36471 11.7364 10.1757 11.7345 10.7709 11.6496C11.3446 11.5678 11.5686 11.427 11.7048 11.2629C11.841 11.0988 11.938 10.8527 11.9128 10.2737C11.8866 9.67306 11.739 8.87562 11.5188 7.70158C11.3618 6.86401 11.2559 6.30679 11.1246 5.89437C10.9998 5.50268 10.8791 5.33401 10.7471 5.22449C10.6151 5.11497 10.4271 5.02734 10.0191 4.97693C9.58956 4.92386 9.02238 4.92246 8.17021 4.92246ZM4.7132 4.61948C4.13092 5.10273 3.97755 5.92071 3.67081 7.55668C3.23947 9.85715 3.0238 11.0074 3.65259 11.765C4.28137 12.5227 5.45165 12.5227 7.7922 12.5227H8.17021C10.5108 12.5227 11.681 12.5227 12.3098 11.765C12.9386 11.0074 12.7229 9.85715 12.2916 7.55668C11.9849 5.92071 11.8315 5.10273 11.2492 4.61948C10.6669 4.13623 9.83469 4.13623 8.17021 4.13623H7.7922C6.12772 4.13623 5.29548 4.13623 4.7132 4.61948Z" fill="black"/>
</g>
</svg>
