<svg width="20" height="20" viewBox="0 0 20 20" fill="none" xmlns="http://www.w3.org/2000/svg">
<g id="vuesax/linear/call-calling">
<g id="call-calling">
<g id="call-calling_2">
<path id="Vector" d="M17.3084 16.275C17.3084 16.575 17.2417 16.8833 17.1001 17.1833C16.9584 17.4833 16.7751 17.7667 16.5334 18.0333C16.1251 18.4833 15.6751 18.8083 15.1667 19.0167C14.6667 19.225 14.1251 19.3333 13.5417 19.3333C12.6917 19.3333 11.7834 19.1333 10.8251 18.725C9.86675 18.3167 8.90842 17.7667 7.95842 17.075C7.00008 16.375 6.09175 15.6 5.22508 14.7417C4.36675 13.875 3.59175 12.9667 2.90008 12.0167C2.21675 11.0667 1.66675 10.1167 1.26675 9.17499C0.866748 8.22499 0.666748 7.31666 0.666748 6.44999C0.666748 5.88332 0.766748 5.34166 0.966748 4.84166C1.16675 4.33332 1.48341 3.86666 1.92508 3.44999C2.45841 2.92499 3.04175 2.66666 3.65841 2.66666C3.89175 2.66666 4.12508 2.71666 4.33341 2.81666C4.55008 2.91666 4.74175 3.06666 4.89175 3.28332L6.82508 6.00832C6.97508 6.21666 7.08341 6.40832 7.15841 6.59166C7.23341 6.76666 7.27508 6.94166 7.27508 7.09999C7.27508 7.29999 7.21675 7.49999 7.10008 7.69166C6.99175 7.88332 6.83341 8.08332 6.63341 8.28332L6.00008 8.94166C5.90841 9.03332 5.86675 9.14166 5.86675 9.27499C5.86675 9.34166 5.87508 9.39999 5.89175 9.46666C5.91675 9.53332 5.94175 9.58332 5.95842 9.63332C6.10842 9.90832 6.36675 10.2667 6.73341 10.7C7.10841 11.1333 7.50841 11.575 7.94175 12.0167C8.39175 12.4583 8.82508 12.8667 9.26675 13.2417C9.70008 13.6083 10.0584 13.8583 10.3417 14.0083C10.3834 14.025 10.4334 14.05 10.4917 14.075C10.5584 14.1 10.6251 14.1083 10.7001 14.1083C10.8417 14.1083 10.9501 14.0583 11.0417 13.9667L11.6751 13.3417C11.8834 13.1333 12.0834 12.975 12.2751 12.875C12.4667 12.7583 12.6584 12.7 12.8667 12.7C13.0251 12.7 13.1917 12.7333 13.3751 12.8083C13.5584 12.8833 13.7501 12.9917 13.9584 13.1333L16.7167 15.0917C16.9334 15.2417 17.0834 15.4167 17.1751 15.625C17.2584 15.8333 17.3084 16.0417 17.3084 16.275Z" stroke="white" stroke-width="1.2" stroke-miterlimit="10"/>
<path id="Vector_2" d="M14.4167 8.50007C14.4167 8.00007 14.025 7.2334 13.4417 6.6084C12.9083 6.0334 12.2 5.5834 11.5 5.5834" stroke="white" stroke-width="1.2" stroke-linecap="round" stroke-linejoin="round"/>
<path id="Vector_3" d="M17.3333 8.49999C17.3333 5.27499 14.725 2.66666 11.5 2.66666" stroke="white" stroke-width="1.2" stroke-linecap="round" stroke-linejoin="round"/>
</g>
</g>
</g>
</svg>
