<svg width="35" height="35" viewBox="0 0 35 35" fill="none" xmlns="http://www.w3.org/2000/svg">
<g id="Outline / Essentional, UI / Delivery">
<g id="Vector">
<path fill-rule="evenodd" clip-rule="evenodd" d="M24.3386 6.40363C23.7011 6.04668 23.0225 6.01072 22.3051 6.10039C21.6237 6.18555 20.7947 6.40102 19.7984 6.65997L17.4692 7.26527C16.4734 7.52404 15.6442 7.7395 15.0098 7.99636C14.3427 8.26643 13.766 8.62929 13.3919 9.25776C13.0154 9.89021 12.978 10.5663 13.0718 11.2725C13.1603 11.9383 13.3836 12.7463 13.6495 13.7089L14.2757 15.9753C14.5417 16.9385 14.7649 17.7463 15.0313 18.3654C15.3142 19.0227 15.6921 19.5823 16.3333 19.9413C16.9707 20.2983 17.6494 20.3342 18.3668 20.2446C19.0482 20.1594 19.8772 19.9439 20.8735 19.685L23.2027 19.0797C24.1985 18.8209 25.0277 18.6054 25.6621 18.3486C26.3291 18.0785 26.9059 17.7157 27.28 17.0872C27.6565 16.4547 27.6939 15.7786 27.6 15.0724C27.5116 14.4066 27.2883 13.5986 27.0223 12.636L26.3962 10.3696C26.1302 9.40647 25.907 8.5986 25.6406 7.97954C25.3577 7.32224 24.9798 6.76267 24.3386 6.40363ZM20.1773 8.35006C21.2447 8.07266 21.9638 7.88755 22.5198 7.81808C23.0525 7.75149 23.3075 7.8102 23.4928 7.914C23.6744 8.0157 23.8479 8.193 24.0505 8.66388C24.2643 9.16052 24.4573 9.85197 24.7438 10.889L25.3375 13.0379C25.6241 14.0752 25.8132 14.7673 25.8841 15.3004C25.9513 15.8067 25.8911 16.0361 25.7925 16.2017C25.6916 16.3713 25.5086 16.5432 25.0125 16.7441C24.4958 16.9532 23.7778 17.1416 22.7102 17.4191L20.4946 17.9949C19.4272 18.2723 18.708 18.4574 18.1521 18.5269C17.6194 18.5934 17.3644 18.5347 17.179 18.4309C16.9974 18.3292 16.824 18.1519 16.6213 17.6811C16.4076 17.1844 16.2146 16.493 15.9281 15.4559L15.3344 13.307C15.0478 12.2697 14.8586 11.5776 14.7878 11.0445C14.7205 10.5382 14.7808 10.3088 14.8793 10.1432C14.9803 9.97364 15.1633 9.80176 15.6594 9.60089C16.1761 9.3917 16.894 9.20331 17.9617 8.92585L20.1773 8.35006Z" fill="#FFA800"/>
<path fill-rule="evenodd" clip-rule="evenodd" d="M7.15482 8.91472C6.6942 8.78693 6.2172 9.05673 6.0894 9.51735C5.96161 9.97796 6.23141 10.455 6.69203 10.5828L8.65815 11.1283C9.14931 11.2645 9.51507 11.6356 9.64002 12.0878L11.8919 20.2389C11.8054 20.2559 11.7189 20.2756 11.6326 20.2981C9.351 20.891 7.9568 23.1862 8.58312 25.4533C9.20644 27.7095 11.5764 29.0107 13.849 28.4201C15.8378 27.9033 17.1523 26.0931 17.0422 24.1355L26.7597 21.6101C27.2224 21.4899 27.5 21.0174 27.3797 20.5547C27.2595 20.0921 26.787 19.8145 26.3243 19.9347L16.5864 22.4654C15.9998 21.326 14.9223 20.5335 13.6938 20.2606L11.3086 11.6269C11.0165 10.5695 10.1791 9.75379 9.12095 9.46022L7.15482 8.91472ZM12.068 21.9735C13.4664 21.6101 14.8696 22.4217 15.2299 23.7259C15.5872 25.0192 14.8029 26.3837 13.4136 26.7447C12.0152 27.1081 10.612 26.2965 10.2517 24.9923C9.89438 23.699 10.6787 22.3345 12.068 21.9735Z" fill="#FFA800"/>
</g>
</g>
</svg>
