<svg width="20" height="20" viewBox="0 0 20 20" fill="none" xmlns="http://www.w3.org/2000/svg">
<g id="vuesax/bold/dribbble">
<g id="dribbble">
<path id="Vector" fill-rule="evenodd" clip-rule="evenodd" d="M13.2333 17.4333C13.2583 17.5667 13.1833 17.7083 13.0583 17.7583C12.1166 18.1333 11.0833 18.3333 10.0167 18.3333C8.175 18.3333 6.47498 17.7417 5.09998 16.725C4.98331 16.6417 4.95001 16.475 5.02501 16.35C5.48334 15.5333 7.27497 12.9083 11.2333 11.4417C11.3833 11.3833 11.55 11.4583 11.6 11.6083C12.5916 14.2667 13.0583 16.5167 13.2333 17.4333Z" fill="#DA477F"/>
<path id="Vector_2" fill-rule="evenodd" clip-rule="evenodd" d="M18.1834 11.575C17.8 13.625 16.65 15.4083 15.0417 16.625C14.8667 16.7583 14.6167 16.6583 14.575 16.4499C14.4 15.5499 13.975 13.6083 13.1583 11.2999C13.1 11.1249 13.2167 10.9333 13.4 10.9083C15.475 10.6583 17.2917 11.0583 17.975 11.2416C18.1167 11.2916 18.2084 11.4333 18.1834 11.575Z" fill="#DA477F"/>
<path id="Vector_3" fill-rule="evenodd" clip-rule="evenodd" d="M17.9917 9.84996C17.1417 9.69996 14.975 9.38328 12.7584 9.62495C12.625 9.64161 12.5084 9.56661 12.45 9.44161C12.4167 9.36661 12.3917 9.29162 12.3584 9.21662C12.225 8.90829 12.0834 8.59163 11.9417 8.28329C11.8667 8.13329 11.9417 7.94995 12.0917 7.88328C14.425 6.87495 15.725 5.57495 16.2334 4.99162C16.3584 4.84995 16.5751 4.8583 16.6917 5.0083C17.6501 6.2833 18.2417 7.84162 18.3334 9.52495C18.3417 9.73328 18.1751 9.8833 17.9917 9.84996Z" fill="#DA477F"/>
<path id="Vector_4" fill-rule="evenodd" clip-rule="evenodd" d="M15.3667 3.99171C14.9334 4.51671 13.7167 5.7667 11.4084 6.68336C11.275 6.7417 11.1167 6.68336 11.0417 6.55003C9.97502 4.6167 8.84167 2.9917 8.31668 2.25837C8.19168 2.08337 8.2917 1.83338 8.50003 1.80004C8.98337 1.71671 9.4917 1.67505 10.0084 1.67505C12.025 1.67505 13.8834 2.39171 15.325 3.59171C15.45 3.68337 15.4667 3.86671 15.3667 3.99171Z" fill="#DA477F"/>
<path id="Vector_5" fill-rule="evenodd" clip-rule="evenodd" d="M9.18335 7.36651C6.02502 8.15818 3.23331 8.26652 2.21665 8.28318C2.02498 8.28318 1.88334 8.09985 1.93334 7.91651C2.53334 5.58318 4.13333 3.63319 6.24166 2.55819C6.36666 2.49152 6.525 2.53317 6.60833 2.64984C7.04166 3.24984 8.21666 4.94152 9.36666 6.93319C9.45833 7.09985 9.37502 7.31651 9.18335 7.36651Z" fill="#DA477F"/>
<path id="Vector_6" fill-rule="evenodd" clip-rule="evenodd" d="M10.7667 9.6666C10.8417 9.82493 10.75 10.0166 10.5834 10.0749C6.89169 11.2666 4.68335 14.2249 4.01668 15.2416C3.90835 15.4083 3.67502 15.4166 3.55002 15.2666C2.38335 13.8333 1.67502 12.1916 1.67502 10.1999V10.0499C1.67502 9.88326 1.80834 9.74992 1.97501 9.75825C3.02501 9.79992 6.45002 9.65825 10.0084 8.63325C10.1417 8.59158 10.2917 8.65827 10.35 8.78327C10.4917 9.07493 10.6333 9.3666 10.7667 9.6666Z" fill="#DA477F"/>
</g>
</g>
</svg>
