<svg width="20" height="20" viewBox="0 0 20 20" fill="none" xmlns="http://www.w3.org/2000/svg">
<g id="vuesax/bold/facebook">
<g id="facebook">
<path id="Vector" d="M18.3333 13.4918C18.3333 16.5251 16.525 18.3334 13.4917 18.3334H12.5C12.0417 18.3334 11.6667 17.9584 11.6667 17.5001V12.6918C11.6667 12.4668 11.85 12.2751 12.075 12.2751L13.5417 12.2501C13.6583 12.2418 13.7583 12.1584 13.7833 12.0418L14.075 10.4501C14.1 10.3001 13.9833 10.1584 13.825 10.1584L12.05 10.1834C11.8166 10.1834 11.6333 10.0001 11.625 9.77509L11.5917 7.73341C11.5917 7.60008 11.7 7.48342 11.8417 7.48342L13.8416 7.45008C13.9833 7.45008 14.0917 7.34176 14.0917 7.20009L14.0583 5.20007C14.0583 5.05841 13.95 4.95008 13.8083 4.95008L11.5583 4.98342C10.175 5.00842 9.075 6.14175 9.1 7.52508L9.14166 9.81675C9.14999 10.0501 8.96667 10.2334 8.73333 10.2418L7.73332 10.2584C7.59166 10.2584 7.48333 10.3667 7.48333 10.5084L7.50833 12.0918C7.50833 12.2334 7.61665 12.3417 7.75832 12.3417L8.75833 12.3251C8.99166 12.3251 9.17498 12.5084 9.18331 12.7334L9.25831 17.4834C9.26664 17.9501 8.89164 18.3334 8.42498 18.3334H6.50832C3.47499 18.3334 1.66666 16.5251 1.66666 13.4834V6.50841C1.66666 3.47508 3.47499 1.66675 6.50832 1.66675H13.4917C16.525 1.66675 18.3333 3.47508 18.3333 6.50841V13.4918Z" fill="white"/>
</g>
</g>
</svg>
