<svg width="30" height="30" viewBox="0 0 30 30" fill="none" xmlns="http://www.w3.org/2000/svg">
<g id="Outline / Hands / Hand Money">
<path id="Vector" fill-rule="evenodd" clip-rule="evenodd" d="M17.3251 6.75017C17.2209 6.75002 17.1126 6.75 17 6.75L13 6.75C12.8874 6.75 12.7791 6.75002 12.675 6.75017C12.3766 8.21938 11.2194 9.37665 9.75016 9.67496C9.75002 9.77915 9.75 9.88742 9.75 10C9.75 10.1126 9.75002 10.2209 9.75016 10.325C11.2194 10.6234 12.3766 11.7806 12.675 13.2498C12.7791 13.25 12.8874 13.25 13 13.25H17C17.1126 13.25 17.2208 13.25 17.325 13.2498C17.6233 11.7806 18.7806 10.6234 20.2498 10.3251C20.25 10.2209 20.25 10.1126 20.25 10C20.25 9.88742 20.25 9.77915 20.2498 9.67496C18.7806 9.37665 17.6234 8.21938 17.3251 6.75017ZM17.9295 5.25327C17.655 5.24998 17.3624 5.24999 17.052 5.25L12.948 5.25C12.6376 5.24999 12.345 5.24998 12.0705 5.25327C12.0473 5.25111 12.0238 5.25 12 5.25C11.9686 5.25 11.9377 5.25193 11.9073 5.25568C11.4545 5.26372 11.0536 5.28312 10.7055 5.32991C10.0777 5.41432 9.51093 5.59999 9.05546 6.05546C8.59999 6.51093 8.41432 7.07773 8.32991 7.70552C8.28312 8.05357 8.26371 8.45451 8.25567 8.90728C8.25193 8.93767 8.25 8.96861 8.25 9C8.25 9.02377 8.2511 9.04728 8.25327 9.07048C8.24998 9.34503 8.24999 9.63761 8.25 9.948V10.052C8.24999 10.3624 8.24998 10.655 8.25327 10.9295C8.2511 10.9527 8.25 10.9762 8.25 11C8.25 11.0314 8.25193 11.0623 8.25567 11.0927C8.26371 11.5455 8.28312 11.9464 8.32991 12.2945C8.41432 12.9223 8.59999 13.4891 9.05546 13.9445C9.51093 14.4 10.0777 14.5857 10.7055 14.6701C11.0536 14.7169 11.4545 14.7363 11.9073 14.7443C11.9377 14.7481 11.9686 14.75 12 14.75C12.0238 14.75 12.0473 14.7489 12.0705 14.7467C12.345 14.75 12.6376 14.75 12.948 14.75H17.052C17.3624 14.75 17.655 14.75 17.9295 14.7467C17.9527 14.7489 17.9762 14.75 18 14.75C18.0314 14.75 18.0623 14.7481 18.0927 14.7443C18.5455 14.7363 18.9464 14.7169 19.2945 14.6701C19.9223 14.5857 20.4891 14.4 20.9445 13.9445C21.4 13.4891 21.5857 12.9223 21.6701 12.2945C21.7169 11.9464 21.7363 11.5455 21.7443 11.0927C21.7481 11.0623 21.75 11.0314 21.75 11C21.75 10.9762 21.7489 10.9527 21.7467 10.9295C21.75 10.655 21.75 10.3624 21.75 10.052V9.94801C21.75 9.63761 21.75 9.34503 21.7467 9.07048C21.7489 9.04728 21.75 9.02377 21.75 9C21.75 8.96861 21.7481 8.93767 21.7443 8.90729C21.7363 8.45451 21.7169 8.05357 21.6701 7.70552C21.5857 7.07773 21.4 6.51093 20.9445 6.05546C20.4891 5.59999 19.9223 5.41432 19.2945 5.32991C18.9464 5.28312 18.5455 5.26372 18.0927 5.25568C18.0623 5.25193 18.0314 5.25 18 5.25C17.9762 5.25 17.9527 5.25111 17.9295 5.25327ZM18.8941 6.79396C19.1219 7.39792 19.6021 7.8781 20.206 8.10591C20.1995 8.03597 20.192 7.96924 20.1835 7.90539C20.1214 7.44393 20.0142 7.24644 19.8839 7.11612C19.7536 6.9858 19.5561 6.87858 19.0946 6.81654C19.0308 6.80795 18.964 6.80048 18.8941 6.79396ZM20.206 11.8941C19.6021 12.1219 19.1219 12.6021 18.8941 13.206C18.964 13.1995 19.0308 13.1921 19.0946 13.1835C19.5561 13.1214 19.7536 13.0142 19.8839 12.8839C20.0142 12.7536 20.1214 12.5561 20.1835 12.0946C20.192 12.0308 20.1995 11.964 20.206 11.8941ZM11.1059 13.206C10.8781 12.6021 10.3979 12.1219 9.79396 11.8941C9.80047 11.964 9.80795 12.0308 9.81653 12.0946C9.87858 12.5561 9.9858 12.7536 10.1161 12.8839C10.2464 13.0142 10.4439 13.1214 10.9054 13.1835C10.9692 13.1921 11.036 13.1995 11.1059 13.206ZM9.79396 8.10591C10.3979 7.8781 10.8781 7.39792 11.1059 6.79396C11.036 6.80048 10.9692 6.80795 10.9054 6.81654C10.4439 6.87858 10.2464 6.9858 10.1161 7.11612C9.9858 7.24644 9.87858 7.44393 9.81653 7.90539C9.80795 7.96924 9.80047 8.03597 9.79396 8.10591ZM15 9.75C14.8619 9.75 14.75 9.86193 14.75 10C14.75 10.1381 14.8619 10.25 15 10.25C15.1381 10.25 15.25 10.1381 15.25 10C15.25 9.86193 15.1381 9.75 15 9.75ZM13.25 10C13.25 9.0335 14.0335 8.25 15 8.25C15.9665 8.25 16.75 9.0335 16.75 10C16.75 10.9665 15.9665 11.75 15 11.75C14.0335 11.75 13.25 10.9665 13.25 10ZM11.6839 17.4482C13.5497 17.0867 15.5471 17.1678 17.1632 18.1318C17.3903 18.2672 17.603 18.4359 17.7887 18.6444C18.1646 19.0666 18.3587 19.5913 18.3679 20.1174C18.5591 19.994 18.7507 19.857 18.9454 19.71L20.7525 18.3448C21.6571 17.6615 22.9718 17.6614 23.8765 18.3445C24.7124 18.9757 25.0457 20.1085 24.4472 21.0677C24.0219 21.7495 23.3814 22.6925 22.7296 23.2962C22.0706 23.9065 21.1329 24.4196 20.4235 24.762C19.562 25.1778 18.6316 25.4077 17.7268 25.5541C15.8776 25.8535 13.9534 25.8077 12.125 25.431C11.1906 25.2384 10.2195 25.1384 9.25993 25.1384H7C6.58579 25.1384 6.25 24.8026 6.25 24.3884C6.25 23.9742 6.58579 23.6384 7 23.6384H9.25993C10.322 23.6384 11.3945 23.749 12.4277 23.9618C14.0797 24.3022 15.8201 24.3432 17.4871 24.0734C18.316 23.9392 19.0901 23.74 19.7715 23.4111C20.4549 23.0812 21.2232 22.6468 21.7103 22.1957C22.2028 21.7395 22.754 20.9479 23.1746 20.2738C23.3015 20.0703 23.284 19.7767 22.9726 19.5416C22.6029 19.2624 22.0263 19.2625 21.6567 19.5417L19.8495 20.9069C19.1281 21.4518 18.2401 22.0349 17.1387 22.2106C17.0276 22.2283 16.9118 22.2445 16.7917 22.2588C16.7344 22.2692 16.6748 22.276 16.6132 22.2783C16.0509 22.3342 15.3997 22.3472 14.6813 22.2793C14.2689 22.2404 13.9661 21.8745 14.0051 21.4621C14.044 21.0497 14.4099 20.747 14.8223 20.786C15.4497 20.8452 16.0126 20.8321 16.4902 20.7831C16.4999 20.7821 16.5096 20.7811 16.5192 20.7801C16.5391 20.7685 16.5696 20.7474 16.6096 20.7125C16.929 20.4336 16.9576 19.9667 16.6684 19.6418C16.5951 19.5595 16.5048 19.4856 16.3949 19.42C15.2137 18.7155 13.6362 18.5978 11.9692 18.9208C10.3117 19.2419 8.66491 19.9817 7.43385 20.8547C7.09598 21.0943 6.62784 21.0146 6.38822 20.6768C6.14861 20.3389 6.22827 19.8708 6.56614 19.6311C7.96451 18.6395 9.8086 17.8115 11.6839 17.4482Z" fill="#555555"/>
</g>
</svg>
