<svg width="144" height="143" viewBox="0 0 144 143" fill="none" xmlns="http://www.w3.org/2000/svg">
<path id="image 70 (Traced)" fill-rule="evenodd" clip-rule="evenodd" d="M81.8107 0.292674C78.029 1.26406 75.0856 4.15339 74.0363 7.92426C73.7286 9.02952 73.713 9.42597 73.6565 17.595L73.5977 26.1131L72.9193 26.214C71.5457 26.4185 68.0023 27.3536 65.6701 28.1273C46.6787 34.4266 32.0212 50.006 27.0127 69.2158C26.6949 70.4348 26.3551 71.8478 26.2579 72.3557L26.081 73.2792L18.1711 73.2804C9.89861 73.2814 9.08171 73.3312 7.30764 73.9422C5.76854 74.4722 4.7329 75.1457 3.32842 76.53C1.17613 78.6514 0.210022 80.9859 0.210022 84.0658C0.210022 87.1347 1.17121 89.4588 3.33199 91.6141C4.39191 92.6713 4.83892 92.997 6.01781 93.571C8.53969 94.7991 8.14092 94.7562 17.6365 94.8165L26.0543 94.8698L26.619 97.3361C31.1413 117.087 46.0985 133.451 65.5642 139.943C75.5268 143.265 86.3408 143.894 96.8049 141.759C119.343 137.159 137.645 119.18 142.545 96.8249C143.504 92.4482 143.901 88.697 143.903 83.9788C143.907 76.4545 142.583 69.4212 139.873 62.5616C132.691 44.3867 116.745 30.7955 97.5947 26.5267L95.4356 26.0454L95.3587 17.3395L95.2819 8.63352L94.8946 7.50063C94.2689 5.6709 93.5151 4.48098 92.0919 3.07621C89.9284 0.940904 87.552 -0.0115672 84.4165 0.000105949C83.4418 0.00379999 82.5418 0.104869 81.8107 0.292674ZM25.8964 19.1333C23.7149 19.6048 21.2332 21.1112 19.8545 22.8008C18.9272 23.9372 18.0128 25.7588 17.6947 27.1037C17.3728 28.4655 17.3691 30.9445 17.6871 32.2015C17.8209 32.7297 18.2292 33.7663 18.5947 34.5049C21.193 39.7562 27.8305 41.944 33.1255 39.2943C36.6733 37.5188 38.8566 34.158 39.0388 30.1915C39.1356 28.0828 38.8487 26.7074 37.9164 24.8134C37.3446 23.6519 37.0059 23.1904 35.9536 22.1388C34.5347 20.7209 33.3125 19.9639 31.5052 19.3839C30.0342 18.9118 27.4542 18.7966 25.8964 19.1333ZM89.4049 46.9187C96.0942 47.7782 102.733 50.6014 108.167 54.8977C111.965 57.9002 115.626 62.3375 117.981 66.7919C125.565 81.136 122.88 98.7511 111.348 110.319C105.303 116.382 97.5296 120.194 89.1115 121.223C86.693 121.518 82.207 121.518 79.9197 121.222C74.2854 120.494 68.3099 118.313 63.8674 115.363C57.3863 111.059 52.2654 104.862 49.5154 97.9953C47.6492 93.3347 46.8177 89.0177 46.8177 83.9884C46.8177 75.8572 49.4432 68.1084 54.4408 61.4896C55.8167 59.6673 58.9702 56.4474 60.8533 54.9421C66.008 50.8218 71.8502 48.2084 78.3362 47.1211C81.9856 46.5095 85.6922 46.4417 89.4049 46.9187ZM81.8107 61.1076C74.8682 61.9784 68.8452 65.6281 65.0718 71.2506C62.621 74.9027 61.3405 78.7773 61.1545 83.1054C60.8134 91.0368 64.4206 98.3541 70.9704 103.017C73.4579 104.788 77.2715 106.364 80.396 106.912C82.4468 107.271 86.4053 107.27 88.437 106.908C94.7452 105.785 100.529 101.992 103.963 96.7269C104.818 95.4163 106.116 92.7178 106.59 91.2677C108.252 86.176 108.033 80.2874 105.998 75.3807C103.036 68.2383 96.7666 63.0735 89.0746 61.4389C87.7213 61.1514 83.131 60.942 81.8107 61.1076ZM86.0482 77.3472C88.0683 77.8694 89.9135 79.3699 90.7632 81.1815C92.5486 84.988 90.5665 89.4325 86.5012 90.739C81.6376 92.3019 76.591 87.9788 77.4849 83.0154C78.2059 79.0119 82.217 76.3569 86.0482 77.3472Z" fill="white" fill-opacity="0.05"/>
</svg>
