<svg width="20" height="20" viewBox="0 0 20 20" fill="none" xmlns="http://www.w3.org/2000/svg">
<g id="vuesax/bulk/menu">
<g id="menu">
<path id="Vector" opacity="0.4" d="M14.6167 7.34166C15.979 7.34166 17.0834 6.23729 17.0834 4.87499C17.0834 3.51269 15.979 2.40833 14.6167 2.40833C13.2544 2.40833 12.15 3.51269 12.15 4.87499C12.15 6.23729 13.2544 7.34166 14.6167 7.34166Z" fill="white"/>
<path id="Vector_2" d="M5.38335 7.34166C6.74566 7.34166 7.85002 6.23729 7.85002 4.87499C7.85002 3.51269 6.74566 2.40833 5.38335 2.40833C4.02105 2.40833 2.91669 3.51269 2.91669 4.87499C2.91669 6.23729 4.02105 7.34166 5.38335 7.34166Z" fill="white"/>
<path id="Vector_3" d="M14.6167 17.5917C15.979 17.5917 17.0834 16.4873 17.0834 15.125C17.0834 13.7627 15.979 12.6583 14.6167 12.6583C13.2544 12.6583 12.15 13.7627 12.15 15.125C12.15 16.4873 13.2544 17.5917 14.6167 17.5917Z" fill="white"/>
<path id="Vector_4" opacity="0.4" d="M5.38335 17.5917C6.74566 17.5917 7.85002 16.4873 7.85002 15.125C7.85002 13.7627 6.74566 12.6583 5.38335 12.6583C4.02105 12.6583 2.91669 13.7627 2.91669 15.125C2.91669 16.4873 4.02105 17.5917 5.38335 17.5917Z" fill="white"/>
</g>
</g>
</svg>
