<svg width="38" height="38" viewBox="0 0 38 38" fill="none" xmlns="http://www.w3.org/2000/svg">
<g id="Outline / Search / Minimalistic Magnifer">
<path id="Vector" fill-rule="evenodd" clip-rule="evenodd" d="M18.3671 7.2833C12.246 7.2833 7.28379 12.2455 7.28379 18.3666C7.28379 24.4878 12.246 29.45 18.3671 29.45C24.4883 29.45 29.4505 24.4878 29.4505 18.3666C29.4505 12.2455 24.4883 7.2833 18.3671 7.2833ZM5.38379 18.3666C5.38379 11.1961 11.1966 5.3833 18.3671 5.3833C25.5376 5.3833 31.3505 11.1961 31.3505 18.3666C31.3505 25.5371 25.5376 31.35 18.3671 31.35C11.1966 31.35 5.38379 25.5371 5.38379 18.3666ZM28.462 28.4615C28.833 28.0906 29.4345 28.0906 29.8055 28.4615L32.3389 30.9949C32.7099 31.3659 32.7099 31.9674 32.3389 32.3384C31.9679 32.7094 31.3664 32.7094 30.9954 32.3384L28.462 29.8051C28.091 29.4341 28.091 28.8325 28.462 28.4615Z" fill="white"/>
</g>
</svg>
