<svg width="38" height="38" viewBox="0 0 38 38" fill="none" xmlns="http://www.w3.org/2000/svg">
<g id="Outline / Notifications / Notification Unread">
<g id="Vector">
<path d="M18.9268 5.3833C16.0028 5.38328 13.7114 5.38327 11.9235 5.62365C10.0935 5.86968 8.64948 6.38311 7.51605 7.51654C6.38263 8.64997 5.8692 10.094 5.62316 11.924C5.38278 13.7119 5.3828 16.0033 5.38281 18.9273V19.0726C5.3828 21.9966 5.38278 24.2881 5.62316 26.0759C5.8692 27.9059 6.38263 29.35 7.51605 30.4834C8.64948 31.6168 10.0935 32.1303 11.9235 32.3763C13.7114 32.6167 16.0028 32.6167 18.9268 32.6166H19.0722C21.9961 32.6167 24.2876 32.6167 26.0755 32.3763C27.9055 32.1303 29.3495 31.6168 30.4829 30.4834C31.6163 29.35 32.1298 27.9059 32.3758 26.0759C32.6162 24.2881 32.6162 21.9966 32.6161 19.0726V17.1C32.6161 16.5753 32.1908 16.15 31.6661 16.15C31.1415 16.15 30.7161 16.5753 30.7161 17.1V19C30.7161 22.0124 30.7141 24.1761 30.4927 25.8228C30.275 27.4421 29.861 28.4183 29.1394 29.1399C28.4178 29.8615 27.4416 30.2755 25.8223 30.4932C24.1756 30.7146 22.0119 30.7166 18.9995 30.7166C15.9871 30.7166 13.8233 30.7146 12.1767 30.4932C10.5574 30.2755 9.58112 29.8615 8.85955 29.1399C8.13799 28.4183 7.72393 27.4421 7.50622 25.8228C7.28483 24.1761 7.28281 22.0124 7.28281 19C7.28281 15.9875 7.28483 13.8238 7.50622 12.1772C7.72393 10.5579 8.13799 9.58161 8.85955 8.86004C9.58112 8.13848 10.5574 7.72441 12.1767 7.5067C13.8233 7.28532 15.9871 7.2833 18.9995 7.2833H20.8995C21.4241 7.2833 21.8495 6.85797 21.8495 6.3333C21.8495 5.80863 21.4241 5.3833 20.8995 5.3833H18.9268Z" fill="white"/>
<path fill-rule="evenodd" clip-rule="evenodd" d="M27.8661 5.3833C25.2428 5.3833 23.1161 7.50995 23.1161 10.1333C23.1161 12.7567 25.2428 14.8833 27.8661 14.8833C30.4895 14.8833 32.6161 12.7567 32.6161 10.1333C32.6161 7.50995 30.4895 5.3833 27.8661 5.3833ZM25.0161 10.1333C25.0161 8.55929 26.2921 7.2833 27.8661 7.2833C29.4402 7.2833 30.7161 8.55929 30.7161 10.1333C30.7161 11.7073 29.4402 12.9833 27.8661 12.9833C26.2921 12.9833 25.0161 11.7073 25.0161 10.1333Z" fill="white"/>
</g>
</g>
</svg>
