<svg width="14" height="14" viewBox="0 0 14 14" fill="none" xmlns="http://www.w3.org/2000/svg">
<g id="vuesax/bulk/sticker">
<g id="sticker">
<path id="Vector" opacity="0.4" d="M12.7925 7.5017C12.7808 7.61253 12.7633 7.71753 12.7342 7.82253C12.1275 7.3092 11.34 7.00003 10.4825 7.00003C8.55168 7.00003 6.98251 8.5692 6.98251 10.5C6.98251 11.3575 7.29168 12.145 7.80501 12.7517C7.70001 12.7809 7.59501 12.7984 7.48418 12.81C6.98835 12.8567 6.48085 12.8334 5.95585 12.7459C3.55835 12.3375 1.62751 10.395 1.23085 7.9917C0.571681 3.99586 3.97835 0.589198 7.97418 1.24836C10.3775 1.64503 12.32 3.57586 12.7283 5.97336C12.8158 6.49836 12.8392 7.00586 12.7925 7.5017Z" fill="#FFA800"/>
<path id="Vector_2" d="M12.7341 7.8225C12.6525 8.10833 12.5008 8.365 12.285 8.58083L8.56332 12.3025C8.34748 12.5183 8.09082 12.67 7.80498 12.7517C7.29165 12.145 6.98248 11.3575 6.98248 10.5C6.98248 8.56917 8.55165 7 10.4825 7C11.34 7 12.1275 7.30917 12.7341 7.8225Z" fill="#FFA800"/>
</g>
</g>
</svg>
