<svg width="49" height="49" viewBox="0 0 49 49" fill="none" xmlns="http://www.w3.org/2000/svg">
<path id="Vector" d="M24.59 49H24.1408C17.6619 48.883 11.4913 46.2218 6.97081 41.5949C2.4503 36.9681 -0.0545625 30.7498 0.000901836 24.2923C0.0563662 17.8347 2.66767 11.6601 7.26699 7.11108C11.8663 2.56204 18.0817 0.00644166 24.5617 0H24.8227C31.2916 0.107235 37.4574 2.75126 41.9832 7.35879C46.509 11.9663 49.0301 18.166 48.9997 24.6136C48.9694 31.0612 46.3901 37.237 41.8211 41.802C37.2521 46.367 31.0617 48.9533 24.592 49H24.59ZM24.762 3.68004C23.747 3.68344 22.7333 3.75079 21.7269 3.88169C17.4495 4.4221 13.5969 6.26313 10.2745 9.35437C3.56497 15.5792 1.77629 25.6393 5.91008 33.814C9.50564 40.9221 16.6017 45.3381 24.4281 45.3381C25.7183 45.3373 27.0055 45.2151 28.2726 44.9731C35.0671 43.6765 40.0244 40.0933 43.0029 34.3282C45.4026 29.6904 45.2954 22.7054 40.4493 18.3155C38.2803 16.3495 35.3342 15.2646 32.1534 15.2646C31.0199 15.2657 29.8902 15.3962 28.7865 15.6538C23.3396 16.9242 19.8249 22.1488 20.786 27.5509C20.8997 28.203 21.0829 28.8411 21.3324 29.4544C22.688 32.7816 25.8647 34.8485 29.6282 34.8485H29.6707C30.705 34.8649 31.732 34.6732 32.6902 34.2848C33.6484 33.8964 34.5181 33.3193 35.2472 32.588C35.9164 31.8957 36.4981 31.1244 36.9792 30.2913C36.8956 30.9279 36.7112 31.5472 36.4329 32.1263C35.8927 33.2676 34.7757 34.8646 32.5116 35.9757C31.8496 36.3035 31.1486 36.5468 30.4255 36.6996C29.7846 36.833 29.1317 36.9006 28.4769 36.9012C27.7422 36.8981 27.0093 36.8272 26.2876 36.6895C23.0603 36.0846 20.5655 34.4714 18.8719 31.9044C17.2856 29.4988 16.6745 26.7423 17.0509 23.7116C17.7024 18.5393 20.3915 14.7585 25.0412 12.4779C27.1505 11.4294 29.4746 10.8814 31.8317 10.8768C34.082 10.9031 36.3075 11.3483 38.3936 12.1895C39.9558 12.8114 41.4217 13.6505 42.7479 14.6819L43.0373 14.9037L42.9037 14.5649C42.5375 13.6454 41.1838 11.4575 39.1018 9.50358C34.968 5.64004 30.1442 3.68004 24.762 3.68004Z" fill="white"/>
</svg>
