<svg width="130" height="130" viewBox="0 0 130 130" fill="none" xmlns="http://www.w3.org/2000/svg">
<g id="Xbox svg" clip-path="url(#clip0_1_1430)">
<g id="Group">
<g id="Group_2">
<path id="Vector" d="M65.0464 52.1668C65.0464 52.1668 65.1392 52.1668 65.0464 52.1668C84.6252 67.0848 117.937 103.685 107.823 113.97C96.3169 123.977 81.3776 130 65.0464 130C48.7152 130 33.5903 123.977 22.2698 113.97C12.0628 103.592 45.4675 66.9922 64.8608 52.2595C64.8608 52.1668 65.0464 52.1668 65.0464 52.1668Z" fill="white" fill-opacity="0.05"/>
<path id="Vector_2" d="M98.9151 9.54383C88.9864 3.52103 78.1299 0 65.0464 0C51.9629 0 41.0136 3.52103 31.0849 9.54383C30.8994 9.54383 30.8994 9.72915 30.8994 9.82181C30.8994 9.91447 31.0849 10.0071 31.1777 10.0071C43.7973 7.22737 62.9122 18.0684 64.768 19.273H65.0464C66.8094 18.1611 85.9243 7.32003 98.6367 10.0071C98.8223 10.0071 98.9151 10.0071 98.9151 9.82181C98.9151 9.63649 99.1006 9.54383 98.9151 9.54383Z" fill="white" fill-opacity="0.05"/>
<path id="Vector_3" d="M19.4861 18.6243C19.3005 18.6243 19.3005 18.8097 19.2077 18.8097C7.33048 30.5773 0 46.9779 0 64.9536C0 79.6864 5.01071 93.3998 13.2691 104.334C13.2691 104.519 13.4547 104.519 13.5475 104.519C13.733 104.519 13.733 104.334 13.5475 104.241C8.62955 88.6742 34.0542 51.6108 47.1378 36.1368L47.3233 35.9515C47.3233 35.7662 47.3233 35.7662 47.1378 35.7662C27.2805 16.0299 20.5996 18.1611 19.4861 18.6243Z" fill="white" fill-opacity="0.05"/>
<path id="Vector_4" d="M82.8622 35.5809L82.6766 35.7662C82.6766 35.7662 82.6766 35.9516 82.8622 35.9516C96.0385 51.5182 121.278 88.5816 116.453 103.963V104.241C116.638 104.241 116.731 104.241 116.731 104.056C124.989 93.2146 130 79.4084 130 64.6757C130 46.7 122.669 30.392 110.699 18.5317C110.514 18.3464 110.514 18.3464 110.421 18.3464C109.4 18.1611 102.812 16.03 82.8622 35.5809Z" fill="white" fill-opacity="0.05"/>
</g>
</g>
</g>
<defs>
<clipPath id="clip0_1_1430">
<rect width="130" height="130" fill="white"/>
</clipPath>
</defs>
</svg>
